<svg width="27" height="27" viewBox="0 0 27 27" fill="none" xmlns="http://www.w3.org/2000/svg">
<path d="M15.5923 13.334C15.3833 14.2536 15.9685 15.215 16.9298 15.424C17.8912 15.6329 18.8526 15.0478 19.0616 14.1282L21.6113 3.17707C21.8202 2.25751 21.2351 1.29615 20.2737 1.08716C19.3123 0.878169 18.351 1.46334 18.142 2.38291L15.5923 13.334Z" fill="url(#paint0_linear_17_124)" stroke="white" stroke-width="0.5"/>
<path d="M18.8948 14.4199C18.8948 14.4199 15.2584 10.8252 8.82146 12.6226C8.82146 12.6226 5.01782 13.2913 5.22681 15.2141C5.22681 15.2141 5.10142 19.9791 6.73155 22.8214C8.7463 26.2703 16.016 26.8589 19.637 22.8214C20.4482 21.9169 20.3713 21.104 20.8074 19.6735C20.8074 18.1735 20.8074 14.6735 18.8948 14.4199Z" fill="url(#paint1_linear_17_124)" stroke="white" stroke-width="0.5"/>
<path d="M12.4146 13.9604C12.5818 14.9217 13.5432 15.5069 14.5045 15.3397C15.4659 15.1725 16.1347 14.253 15.9675 13.2916L13.8775 2.25687C13.7104 1.29551 12.749 0.710332 11.7876 0.877525C10.8263 1.04472 10.1575 1.96428 10.3665 2.92564L12.4146 13.9604Z" fill="url(#paint2_linear_17_124)"/>
<path d="M12.4146 13.9604C12.5818 14.9217 13.5432 15.5069 14.5045 15.3397C15.4659 15.1725 16.1347 14.253 15.9675 13.2916L13.8775 2.25687C13.7104 1.29551 12.749 0.710332 11.7876 0.877525C10.8263 1.04472 10.1575 1.96428 10.3665 2.92564L12.4146 13.9604" stroke="white" stroke-width="0.5"/>
<path d="M5.01898 13.4177C4.89359 12.4564 5.60416 11.5786 6.60732 11.4532H6.64911C7.61047 11.3696 8.53003 12.0384 8.61363 13.0415L8.90622 15.7584C9.03161 16.7198 8.32104 17.5975 7.31789 17.7229H7.27609C6.27293 17.8065 5.39517 17.1378 5.31157 16.1346L5.01898 13.4177Z" fill="url(#paint3_linear_17_124)"/>
<path d="M5.01898 13.4177C4.89359 12.4564 5.60416 11.5786 6.60732 11.4532H6.64911C7.61047 11.3696 8.53003 12.0384 8.61363 13.0415L8.90622 15.7584C9.03161 16.7198 8.32104 17.5975 7.31789 17.7229H7.27609C6.27293 17.8065 5.39517 17.1378 5.31157 16.1346L5.01898 13.4177" stroke="white" stroke-width="0.5"/>
<path d="M8.40106 11.4532C8.27567 10.4918 8.98624 9.61406 9.98939 9.48867H10.0312C11.0343 9.40507 11.9121 10.0738 11.9957 11.077L12.2883 13.7939C12.4137 14.7552 11.7031 15.633 10.7 15.7584H10.6582C9.65501 15.842 8.77725 15.1732 8.69365 14.1701L8.40106 11.4532Z" fill="url(#paint4_linear_17_124)"/>
<path d="M8.40106 11.4532C8.27567 10.4918 8.98624 9.61406 9.98939 9.48867H10.0312C11.0343 9.40507 11.9121 10.0738 11.9957 11.077L12.2883 13.7939C12.4137 14.7552 11.7031 15.633 10.7 15.7584H10.6582C9.65501 15.842 8.77725 15.1732 8.69365 14.1701L8.40106 11.4532" stroke="white" stroke-width="0.5"/>
<path d="M6.7222 17.1384C7.72536 17.013 8.39413 16.177 8.31054 15.1738L8.01795 12.4569C7.97615 12.2062 7.85076 11.9136 7.72536 11.6628C8.35234 11.9554 8.56133 12.4569 8.64492 13.0421L8.93751 15.759C9.06291 16.7204 8.35234 17.5981 7.39098 17.6817C6.68041 17.7653 6.01163 17.3891 5.67725 16.8458C5.92804 17.0548 6.30422 17.1802 6.7222 17.1384Z" fill="white"/>
<path d="M10.0604 15.1736C11.0636 15.0482 11.7742 14.2123 11.6488 13.2509L11.3562 10.534C11.3144 10.2832 11.189 9.94886 11.0636 9.73987C11.6488 10.0743 11.8996 10.5758 11.9832 11.161L12.2757 13.8779C12.4011 14.8393 11.6906 15.6752 10.6874 15.8006H10.6456C9.93504 15.8842 9.26627 15.508 8.93188 14.9647C9.26627 15.1318 9.64245 15.2154 10.0604 15.1736Z" fill="white"/>
<path d="M17.2995 17.0543C15.2932 16.093 10.7372 17.7649 11.6567 21.9447C11.6567 17.5977 15.5858 16.8454 17.2995 17.0543Z" fill="white"/>
<path d="M16.5418 12.7491C15.0789 11.8713 14.8281 13.2507 12.362 13.3343C11.2752 13.3761 10.8154 15.5914 12.4456 16.3855C14.7027 17.5141 14.8699 15.9257 15.4551 16.5527C16.0402 17.2215 16.5836 17.3469 17.0852 18.0993C17.4614 18.6426 20.2619 17.8067 20.5544 16.6781C21.0978 14.4628 18.7989 14.1284 16.5418 12.7491Z" fill="white"/>
<path d="M16.72 13.1251C15.2153 12.2473 14.9227 13.6266 12.373 13.7102C11.2445 13.752 10.7429 16.0509 12.4566 16.8869C14.7973 18.0573 15.0063 16.3853 15.5497 17.0541C16.1766 17.7229 16.72 17.8901 17.2634 18.6842C17.6396 19.2694 16.6364 21.4429 16.6364 21.4429C16.6364 21.4429 19.5205 23.491 20.1057 22.3207C21.1924 20.1472 20.8999 18.4752 20.8581 17.2213C20.7745 14.2536 19.1025 14.5462 16.72 13.1251Z" fill="url(#paint5_linear_17_124)"/>
<path d="M16.72 13.1251C15.2153 12.2473 14.9227 13.6266 12.373 13.7102C11.2445 13.752 10.7429 16.0509 12.4566 16.8869C14.7973 18.0573 15.0063 16.3853 15.5497 17.0541C16.1766 17.7229 16.72 17.8901 17.2634 18.6842C17.6396 19.2694 16.6364 21.4429 16.6364 21.4429C16.6364 21.4429 19.5205 23.491 20.1057 22.3207C21.1924 20.1472 20.8999 18.4752 20.8581 17.2213C20.7745 14.2536 19.1025 14.5462 16.72 13.1251" stroke="white" stroke-width="0.5"/>
<defs>
<linearGradient id="paint0_linear_17_124" x1="16.1158" y1="-0.262744" x2="24.5882" y2="0.882682" gradientUnits="userSpaceOnUse">
<stop stop-color="#C54A92"/>
<stop offset="1" stop-color="#2E62EB"/>
</linearGradient>
<linearGradient id="paint1_linear_17_124" x1="6.7058" y1="10.8687" x2="26.634" y2="18.2738" gradientUnits="userSpaceOnUse">
<stop stop-color="#C54A92"/>
<stop offset="1" stop-color="#2E62EB"/>
</linearGradient>
<linearGradient id="paint2_linear_17_124" x1="10.8532" y1="-0.467262" x2="18.7382" y2="0.515523" gradientUnits="userSpaceOnUse">
<stop stop-color="#C54A92"/>
<stop offset="1" stop-color="#2E62EB"/>
</linearGradient>
<linearGradient id="paint3_linear_17_124" x1="5.36762" y1="10.8764" x2="10.6918" y2="11.9363" gradientUnits="userSpaceOnUse">
<stop stop-color="#C54A92"/>
<stop offset="1" stop-color="#2E62EB"/>
</linearGradient>
<linearGradient id="paint4_linear_17_124" x1="8.7497" y1="8.9119" x2="14.0739" y2="9.97178" gradientUnits="userSpaceOnUse">
<stop stop-color="#C54A92"/>
<stop offset="1" stop-color="#2E62EB"/>
</linearGradient>
<linearGradient id="paint5_linear_17_124" x1="12.2314" y1="11.9411" x2="24.5821" y2="15.7798" gradientUnits="userSpaceOnUse">
<stop stop-color="#C54A92"/>
<stop offset="1" stop-color="#2E62EB"/>
</linearGradient>
</defs>
</svg>
