<svg width="23" height="21" viewBox="0 0 23 21" fill="none" xmlns="http://www.w3.org/2000/svg">
<path fill-rule="evenodd" clip-rule="evenodd" d="M3.34859 1.18262C1.63729 1.18262 0.25 2.5699 0.25 4.28121V16.6756C0.25 18.3869 1.63729 19.7742 3.34859 19.7742H15.743C17.4543 19.7742 18.8415 18.3869 18.8415 16.6756V4.28121C18.8415 3.78134 18.7232 3.30911 18.513 2.89103C17.9835 1.79417 16.9838 1.42875 16.8236 1.37628C16.4872 1.25106 16.1231 1.18262 15.743 1.18262H3.34859ZM16.8236 1.37628C16.8094 1.3716 16.8018 1.36941 16.8018 1.36941C15.2407 2.82571 14.0896 4.10631 12.9632 5.35949C12.2484 6.15466 11.5436 6.9388 10.7502 7.74978L9.27697 5.99631C8.16997 4.72603 6.25353 4.6031 4.99648 5.72176C3.73943 6.84041 3.61779 8.77703 4.72479 10.0473L8.82521 14.7417C9.40296 15.4047 10.2357 15.7835 11.1099 15.781C11.9841 15.7785 12.8147 15.395 13.3887 14.7287L18.8412 8.46419V4.43608C18.8412 3.80603 18.7095 3.29815 18.513 2.89103C18.1633 2.19572 17.5596 1.65017 16.8236 1.37628Z" fill="url(#paint0_linear_35_11)"/>
<path d="M16.8018 1.36941L16.871 1.12919L16.7348 1.08995L16.6312 1.18661L16.8018 1.36941ZM12.9632 5.35949L13.1491 5.52661L12.9632 5.35949ZM10.7502 7.74978L10.5588 7.9106L10.7361 8.12167L10.9289 7.92461L10.7502 7.74978ZM9.27697 5.99631L9.46841 5.83547L9.46545 5.83206L9.27697 5.99631ZM4.99648 5.72176L4.83029 5.535L4.99648 5.72176ZM4.72479 10.0473L4.53632 10.2116L4.5365 10.2118L4.72479 10.0473ZM8.82521 14.7417L9.01368 14.5775L9.0135 14.5773L8.82521 14.7417ZM11.1099 15.781L11.1106 16.031L11.1099 15.781ZM13.3887 14.7287L13.2001 14.5646L13.1993 14.5655L13.3887 14.7287ZM18.8412 8.46419L19.0298 8.62833L19.0912 8.55775V8.46419H18.8412ZM0.5 4.28121C0.5 2.70797 1.77536 1.43262 3.34859 1.43262V0.932617C1.49922 0.932617 0 2.43183 0 4.28121H0.5ZM0.5 16.6756V4.28121H0V16.6756H0.5ZM3.34859 19.5242C1.77536 19.5242 0.5 18.2488 0.5 16.6756H0C0 18.525 1.49921 20.0242 3.34859 20.0242V19.5242ZM15.743 19.5242H3.34859V20.0242H15.743V19.5242ZM18.5915 16.6756C18.5915 18.2488 17.3162 19.5242 15.743 19.5242V20.0242C17.5923 20.0242 19.0915 18.525 19.0915 16.6756H18.5915ZM18.5915 4.28121V16.6756H19.0915V4.28121H18.5915ZM18.2896 3.00335C18.4827 3.38737 18.5915 3.82122 18.5915 4.28121H19.0915C19.0915 3.74146 18.9637 3.23085 18.7363 2.77872L18.2896 3.00335ZM16.7458 1.61385C16.8834 1.65896 17.8028 1.9949 18.2878 2.99972L18.7381 2.78235C18.1642 1.59343 17.0841 1.19854 16.9015 1.13871L16.7458 1.61385ZM15.743 1.43262C16.0928 1.43262 16.4274 1.49558 16.7364 1.61058L16.9108 1.14198C16.5469 1.00653 16.1533 0.932617 15.743 0.932617V1.43262ZM3.34859 1.43262H15.743V0.932617H3.34859V1.43262ZM16.8018 1.36941C16.7325 1.60963 16.7325 1.60963 16.7325 1.60963C16.7325 1.60963 16.7325 1.60963 16.7325 1.60962C16.7325 1.60962 16.7325 1.60962 16.7325 1.60962C16.7324 1.60961 16.7324 1.6096 16.7324 1.6096C16.7324 1.60959 16.7323 1.60958 16.7323 1.60957C16.7322 1.60954 16.7322 1.60953 16.7321 1.60951C16.732 1.60948 16.7319 1.60945 16.7318 1.60944C16.7317 1.6094 16.7317 1.6094 16.7319 1.60944C16.7321 1.60951 16.7328 1.60971 16.7339 1.61006C16.7362 1.61075 16.7402 1.612 16.7458 1.61385L16.9015 1.13871C16.8929 1.13588 16.8859 1.1337 16.8808 1.13212C16.8782 1.13134 16.8761 1.1307 16.8745 1.13022C16.8737 1.12997 16.873 1.12976 16.8724 1.12959C16.8721 1.12951 16.8718 1.12943 16.8716 1.12937C16.8715 1.12933 16.8714 1.1293 16.8713 1.12927C16.8712 1.12926 16.8712 1.12924 16.8711 1.12923C16.8711 1.12922 16.8711 1.12922 16.8711 1.12921C16.8711 1.12921 16.871 1.1292 16.871 1.1292C16.871 1.1292 16.871 1.1292 16.871 1.1292C16.871 1.12919 16.871 1.12919 16.8018 1.36941ZM13.1491 5.52661C14.2755 4.27346 15.4201 3.00024 16.9723 1.55221L16.6312 1.18661C15.0613 2.65118 13.9037 3.93916 12.7773 5.19236L13.1491 5.52661ZM10.9289 7.92461C11.7265 7.10929 12.4347 6.32134 13.1491 5.52661L12.7773 5.19236C12.0621 5.98799 11.3606 6.76831 10.5715 7.57496L10.9289 7.92461ZM9.08556 6.15713L10.5588 7.9106L10.9416 7.58896L9.46838 5.83549L9.08556 6.15713ZM5.16268 5.90851C6.31559 4.88254 8.07267 4.99489 9.0885 6.16056L9.46545 5.83206C8.26728 4.45716 6.19148 4.32367 4.83029 5.535L5.16268 5.90851ZM4.91327 9.88307C3.89611 8.71588 4.00825 6.93585 5.16268 5.90851L4.83029 5.535C3.47062 6.74497 3.33947 8.83818 4.53632 10.2116L4.91327 9.88307ZM9.0135 14.5773L4.91308 9.88285L4.5365 10.2118L8.63692 14.9062L9.0135 14.5773ZM11.1092 15.531C10.308 15.5333 9.54412 15.1862 9.01368 14.5775L8.63673 14.906C9.2618 15.6232 10.1634 16.0337 11.1106 16.031L11.1092 15.531ZM13.1993 14.5655C12.6723 15.1772 11.9103 15.5287 11.1092 15.531L11.1106 16.031C12.0578 16.0283 12.9571 15.6127 13.5781 14.8919L13.1993 14.5655ZM18.6527 8.30006L13.2001 14.5646L13.5773 14.8928L19.0298 8.62833L18.6527 8.30006ZM18.5912 4.43608V8.46419H19.0912V4.43608H18.5912ZM18.2878 2.99972C18.4673 3.37159 18.5912 3.84214 18.5912 4.43608H19.0912C19.0912 3.76992 18.9516 3.22471 18.7381 2.78235L18.2878 2.99972ZM16.7364 1.61058C17.4127 1.86228 17.9681 2.36398 18.2896 3.00335L18.7363 2.77872C18.3585 2.02747 17.7064 1.43806 16.9108 1.14198L16.7364 1.61058Z" fill="white"/>
<path fill-rule="evenodd" clip-rule="evenodd" d="M21.5975 0.705732C22.3892 1.37809 22.4722 2.54919 21.7829 3.32145L12.1463 13.6134C11.7865 14.0165 11.266 14.2485 10.7182 14.25C10.1704 14.2515 9.64851 14.0224 9.28645 13.6213L5.57998 9.36671C4.88625 8.59826 4.96248 7.42672 5.75024 6.75C6.53801 6.07328 7.73899 6.14764 8.43272 6.91609L10.7047 9.58166L18.916 0.886622C19.6053 0.114361 20.8058 0.0333739 21.5975 0.705732Z" fill="url(#paint1_linear_35_11)" stroke="white" stroke-width="0.5"/>
<defs>
<linearGradient id="paint0_linear_35_11" x1="1.97333" y1="-0.503008" x2="25.8192" y2="7.11443" gradientUnits="userSpaceOnUse">
<stop stop-color="#C54A92"/>
<stop offset="1" stop-color="#2E62EB"/>
</linearGradient>
<linearGradient id="paint1_linear_35_11" x1="6.62188" y1="1.16266" x2="24.6916" y2="8.26352" gradientUnits="userSpaceOnUse">
<stop stop-color="#C54A92"/>
<stop offset="1" stop-color="#2E62EB"/>
</linearGradient>
</defs>
</svg>
