<svg width="30" height="20" viewBox="0 0 30 20" fill="none" xmlns="http://www.w3.org/2000/svg">
<path d="M20.0715 0.25H16.1546C15.7898 0.25 15.4387 0.395608 15.1697 0.657702L10.6874 5.02593C10.6828 5.03079 10.6783 5.04049 10.6737 5.04535C9.91679 5.80251 9.93047 7.01105 10.578 7.76336C11.1571 8.43801 12.3745 8.61759 13.136 7.89441C13.1406 7.88955 13.1497 7.88955 13.1543 7.8847L16.7975 4.33187C17.0939 4.04551 17.559 4.06492 17.8281 4.38041C18.1016 4.69589 18.0788 5.1861 17.7825 5.47732L16.5924 6.63733L23.2314 12.3743C23.3637 12.4908 23.4822 12.6169 23.5917 12.748V3.3563L21.102 0.706238C20.833 0.415022 20.4591 0.25 20.0715 0.25ZM25.0554 3.366V14.2332C25.0554 15.0923 25.7074 15.7863 26.5145 15.7863H29.4328V3.366H25.0554ZM27.2441 14.2332C26.8428 14.2332 26.5145 13.8837 26.5145 13.4566C26.5145 13.0295 26.8428 12.68 27.2441 12.68C27.6453 12.68 27.9736 13.0295 27.9736 13.4566C27.9736 13.8837 27.6453 14.2332 27.2441 14.2332ZM0.25 15.7815H3.16828C3.97536 15.7815 4.62742 15.0874 4.62742 14.2283V3.366H0.25V15.7815ZM2.43871 12.68C2.83997 12.68 3.16828 13.0295 3.16828 13.4566C3.16828 13.8837 2.83997 14.2332 2.43871 14.2332C2.03744 14.2332 1.70914 13.8837 1.70914 13.4566C1.70914 13.0247 2.03744 12.68 2.43871 12.68ZM22.3149 13.5828L15.5071 7.70026L14.1392 9.035C12.7849 10.3503 10.7102 10.2241 9.50185 8.82144C8.27526 7.39449 8.37102 5.1861 9.70248 3.88534L13.4324 0.25H9.61129C9.2237 0.25 8.85436 0.415022 8.58077 0.706238L6.08655 3.3563V14.2235H6.921L11.0476 18.1986C12.297 19.2809 14.1346 19.0771 15.1515 17.7472L15.1606 17.7375L15.9768 18.4898C16.7018 19.1208 17.7733 18.9994 18.3616 18.2277L19.7933 16.3542L20.0396 16.5678C20.6643 17.1065 21.5853 17.0094 22.0915 16.3397L22.5247 15.7718C23.0354 15.102 22.9396 14.1264 22.3149 13.5828Z" fill="url(#paint0_linear_17_144)" stroke="white" stroke-width="0.5"/>
<defs>
<linearGradient id="paint0_linear_17_144" x1="2.95508" y1="-1.44043" x2="35.9551" y2="15.0596" gradientUnits="userSpaceOnUse">
<stop stop-color="#C54A92"/>
<stop offset="1" stop-color="#2E62EB"/>
</linearGradient>
</defs>
</svg>
